<svg class="icon" viewBox="0 0 1024 1024" xmlns="http://www.w3.org/2000/svg" width="200" height="200"><defs><style/></defs><path d="M487.648 240a16 16 0 0116-16h16a16 16 0 0116 16v546.784a16 16 0 01-16 16h-16a16 16 0 01-16-16V240zm155.84 89.04a16 16 0 0116-16h16a16 16 0 0116 16v346.432a16 16 0 01-16 16h-16a16 16 0 01-16-16V329.04zm155.824 144.704a16 16 0 0116-16h16a16 16 0 0116 16v123.824a16 16 0 01-16 16h-16a16 16 0 01-16-16v-123.84zM331.824 329.04a16 16 0 0116-16h16a16 16 0 0116 16v346.432a16 16 0 01-16 16h-16a16 16 0 01-16-16V329.04zM176 473.76a16 16 0 0116-16h16a16 16 0 0116 16v112.688a16 16 0 01-16 16h-16a16 16 0 01-16-16V473.76z" fill="#2c2c2c"/></svg>